<?xml version="1.0" encoding="utf-8"?>
<!-- Generator: Adobe Illustrator 22.1.0, SVG Export Plug-In . SVG Version: 6.00 Build 0)  -->
<svg version="1.1" id="Layer_1" xmlns="http://www.w3.org/2000/svg" xmlns:xlink="http://www.w3.org/1999/xlink" x="0px" y="0px"
	 viewBox="0 0 512 512" style="enable-background:new 0 0 512 512;" xml:space="preserve">
<g>
	<path d="M31,307.1c1.7-3.1,3.8-3.6,7.1-1.8c7.7,4.1,15.2,8.4,23,12.3c29.9,14.9,61.3,26.3,93.8,34.1c15.3,3.7,30.9,6.6,46.5,8.7
		c23.2,3.1,46.6,4.4,69.9,3.8c12.8-0.3,25.6-1.3,38.4-2.8c41.4-4.8,81.8-15.4,120.2-31.5c2.1-0.9,4.3-1.5,6.7-0.9
		c4.9,1.3,6.6,6.6,3,10.2c-2.2,2-4.6,3.8-7.1,5.4c-22.6,15.5-47.3,26.8-73.3,35.3c-18,5.8-36.5,10.2-55.3,13
		c-13,2-26.1,3.2-39.2,3.5c-0.6,0-1.2,0.1-1.8,0.2h-15.5c-0.6-0.1-1.2-0.2-1.8-0.2c-2.7-0.1-5.3-0.2-7.9-0.3
		c-12.4-0.6-24.8-1.9-37.1-3.9c-20.2-3.3-40-8.4-59.2-15.4c-39.5-14.3-75.9-36-107.2-64.1c-1.3-1.2-2.2-2.8-3.2-4.2L31,307.1z
		 M147.3,115.5l-3.2,0.4c-10.1,1.2-19.8,5.1-28,11.1c-1.8,1.3-3.4,2.6-5.2,4c-0.2-0.3-0.3-0.7-0.3-1c-0.3-2-0.6-4-1-6
		c-0.5-3.4-2.2-4.9-5.6-4.9h-8.5c-5.1,0-6,1-6,6v154.1c0,0.7,0,1.5,0.1,2.2c0.1,2.2,1.5,3.6,3.6,3.7c5.2,0.1,10.4,0.1,15.5,0
		c2.1,0,3.5-1.5,3.7-3.7c0.1-0.7,0.1-1.5,0.1-2.2v-53.3c0.8,0.7,1.3,1,1.6,1.4c13.2,11,28.3,14.6,44.9,11.3
		c15-2.9,25.5-12.1,32.2-25.7c5.2-10.2,7.3-21.1,7.6-32.5c0.4-12.6-0.9-25-6-36.7c-6.3-14.4-16.6-23.9-32.3-27.2
		c-2.4-0.5-4.8-0.7-7.2-1.1C151.4,115.5,149.4,115.5,147.3,115.5z M112.4,146.3c-0.1-1,0.4-1.9,1.3-2.4c10.1-7,21.2-10.7,33.6-9.7
		c11,0.8,20,6.2,24.7,19.1c2.9,7.9,3.6,16.1,3.6,24.3c0,7.7-0.6,15.2-2.9,22.5c-5,15.7-16.5,21.6-31.4,21
		c-10.3-0.4-19.3-4.4-27.5-10.2c-0.8-0.5-1.3-1.4-1.3-2.4c0.1-10.4,0-20.7,0-31.1S112.5,156.7,112.4,146.3L112.4,146.3z
		 M263.9,115.5c-0.7,0.1-1.5,0.2-2.1,0.3c-7.2,0.3-14.3,1.3-21.3,3c-4.5,1.2-8.8,2.8-13.2,4.3c-2.7,0.9-4,2.8-3.9,5.7
		c0.1,2.4-0.1,4.9,0,7.3c0.1,3.5,1.5,4.5,5,3.6c5.7-1.5,11.5-3.1,17.3-4.2c9.1-1.7,18.2-2.4,27.4-1c4.8,0.7,9.3,2.1,12.4,6.2
		c2.7,3.5,3.8,7.7,3.9,12.1c0.2,6.1,0.1,12.2,0.2,18.3c0,0.3-0.1,0.7-0.1,1c-0.4-0.1-0.7,0-1-0.1c-7.7-1.9-15.6-3.1-23.6-3.6
		c-8.3-0.4-16.6,0.1-24.5,2.9c-9.5,3.3-17.2,9.1-21.6,18.3c-3.5,7.2-4,14.9-2.9,22.6c1.5,10.3,6.6,18.3,15.8,23.3
		c8.8,4.9,18.3,5.4,27.9,4c11.1-1.7,21-6.4,29.7-13.5c0.4-0.3,0.8-0.6,1.2-0.8c0.4,2.8,0.8,5.4,1.3,8.1c0.4,2.3,1.8,3.8,4,3.8
		c4,0.1,8,0.1,12,0c1.9,0,3.5-1.5,3.5-3.5c0.1-0.7,0.1-1.4,0.1-2.1v-78c0-3.2-0.2-6.4-0.7-9.5c-1.4-9.5-5.4-17.3-14-22.4
		c-4.9-2.9-10.4-4.4-16.1-5.2c-2.7-0.4-5.3-0.6-8-1C269.8,115.5,266.8,115.5,263.9,115.5L263.9,115.5z M289.6,209.5
		c0.1,0.9-0.4,1.7-1.1,2.2c-8.2,6-17.3,9.9-27.5,11c-4.2,0.4-8.4,0.3-12.4-1.3c-4.4-1.6-7.8-5.3-9.1-9.8c-1.5-4.6-1.5-9.6-0.1-14.3
		c1.8-6.1,6.2-9.6,12.1-11.5c5.9-1.8,12.1-2.3,18.3-1.6c6.2,0.5,12.2,1.7,18.4,2.5c1.2,0.1,1.5,0.7,1.5,1.9c-0.1,3.5,0,7,0,10.5
		S289.6,206,289.6,209.5z M481,304.8c-0.7-3.7-3.5-5.1-6.7-6.1c-5-1.6-10.2-2.5-15.5-2.9c-9.6-0.8-19.3-0.4-28.9,1.4
		c-10.5,2-20.5,5.4-29.5,11.5c-1.1,0.7-2,1.6-2.7,2.6c-0.5,0.9-0.7,2-0.4,2.9c0.3,1.1,1.5,1.4,2.7,1.3c0.5,0,1.1,0,1.6-0.1
		c5.7-0.6,11.4-1.3,17.2-1.8c8.4-0.8,16.9-1.3,25.3-0.7c3.6,0.3,7.1,1,10.6,2c3.8,1,5.4,3.8,5.6,7.7c0.3,5.9-1,11.6-2.6,17.2
		c-3,11.3-7.4,22.3-11.6,33.2c-0.3,0.7-0.6,1.5-0.7,2.2c-0.4,2.1,0.9,3.5,3,3c1.3-0.3,2.5-0.9,3.5-1.8c3.3-3.1,6.4-6.4,9.4-9.9
		c9.4-12.1,14.9-26,18.2-40.9c0.6-2.7,1-5.4,1.5-8L481,304.8L481,304.8z M383.7,214.1c-9.5-26.3-19-52.6-28.5-78.9
		c-1.5-4.2-3.1-8.3-4.6-12.4c-0.8-2.1-2.4-3.5-4.7-3.5c-5.6-0.1-11.2-0.1-16.9-0.1c-1.8,0-2.7,1.5-2.4,3.3c0.4,1.5,0.8,3,1.4,4.5
		c14.4,35.7,28.9,71.4,43.5,107.1c1.3,3,1.5,5.6,0.1,8.7c-2.4,5.4-4.3,11-6.8,16.4c-2.2,4.8-5.9,8.4-11.2,9.8
		c-3.7,1-7.5,1.2-11.3,0.8c-1.8-0.1-3.7-0.6-5.5-0.7c-2.5-0.1-3.8,1-3.8,3.5c-0.1,2.5-0.1,4.9,0,7.3c0.1,4,1.5,5.9,5.4,6.6
		c4.1,0.8,8.3,1.3,12.4,1.5c12.6,0.3,22.6-4.8,29.1-15.8c2.6-4.3,4.9-8.9,6.8-13.5c17.4-44,34.8-88.1,52-132.2
		c0.5-1.3,0.9-2.7,1.2-4c0.3-2.1-0.7-3.2-2.7-3.2c-4.9-0.1-9.8,0-14.7,0c-2.5-0.2-4.9,1.4-5.7,3.8c-0.4,1-0.8,2-1.2,3l-25.6,73.6
		c-1.8,5.3-3.8,10.7-5.7,16.3C384.1,215,384,214.6,383.7,214.1L383.7,214.1z"/>
</g>
</svg>
